<?xml version="1.0" encoding="UTF-8" standalone="no"?>
<!-- Created with Inkscape (http://www.inkscape.org/) -->

<svg
   version="1.1"
   id="svg1"
   width="278.953"
   height="278.95297"
   viewBox="0 0 278.95303 278.953"
   sodipodi:docname="icon7.svg"
   inkscape:version="1.4.2 (f4327f4, 2025-05-13)"
   xml:space="preserve"
   xmlns:inkscape="http://www.inkscape.org/namespaces/inkscape"
   xmlns:sodipodi="http://sodipodi.sourceforge.net/DTD/sodipodi-0.dtd"
   xmlns:xlink="http://www.w3.org/1999/xlink"
   xmlns="http://www.w3.org/2000/svg"
   xmlns:svg="http://www.w3.org/2000/svg"><defs
     id="defs1"><linearGradient
       id="linearGradient419"
       inkscape:collect="always"><stop
         style="stop-color:#cbced3;stop-opacity:1;"
         offset="0"
         id="stop419" /><stop
         style="stop-color:#cbced3;stop-opacity:1;"
         offset="0.5"
         id="stop421" /><stop
         style="stop-color:#e9eaee;stop-opacity:1;"
         offset="0.5"
         id="stop420" /></linearGradient><filter
       inkscape:collect="always"
       style="color-interpolation-filters:sRGB"
       id="filter414"
       x="-0.052853275"
       y="-0.025112367"
       width="1.1057065"
       height="1.0502247"><feGaussianBlur
         inkscape:collect="always"
         stdDeviation="2.1201099"
         id="feGaussianBlur414" /></filter><filter
       inkscape:collect="always"
       style="color-interpolation-filters:sRGB"
       id="filter415"
       x="-0.018311442"
       y="-0.019069248"
       width="1.0366229"
       height="1.0381385"><feGaussianBlur
         inkscape:collect="always"
         stdDeviation="1.6174721"
         id="feGaussianBlur415" /></filter><clipPath
       clipPathUnits="userSpaceOnUse"
       id="clipPath419"><path
         id="path419"
         style="display:inline;fill:#0e4c99;fill-opacity:1;stroke:none"
         d="m 75.502701,262.37214 c -7.153674,0 -12.952874,-5.7992 -12.952878,-12.95287 -1e-6,-7.15368 5.7992,-12.95288 12.952878,-12.95288 l 165.502099,-0.5 c 8.31,0 15,-6.69 15,-15 V 48.70948 c 0,-8.31 -6.69,-15 -15,-15 H 105.96262 82.080433 c -24.93,0 -45,20.07 -45,45 v 158.32654 c 0,24.93 20.07,45 45,45 h 23.882187 l 150.04218,-1e-5 -17.57654,-19.66386 z"
         sodipodi:nodetypes="csccssccsssscccc"
         sodipodi:insensitive="true"
         inkscape:label="book" /></clipPath><linearGradient
       inkscape:collect="always"
       xlink:href="#linearGradient419"
       id="linearGradient420"
       x1="148.67831"
       y1="159.41933"
       x2="148.67831"
       y2="338.91919"
       gradientUnits="userSpaceOnUse"
       gradientTransform="translate(-6.027893,0.39578091)" /></defs><sodipodi:namedview
     id="namedview1"
     pagecolor="#1e1e1e"
     bordercolor="#000000"
     borderopacity="0.25"
     inkscape:showpageshadow="2"
     inkscape:pageopacity="0.0"
     inkscape:pagecheckerboard="0"
     inkscape:deskcolor="#d1d1d1"
     showguides="true"
     inkscape:lockguides="false"
     inkscape:zoom="2.6698718"
     inkscape:cx="208.06242"
     inkscape:cy="123.41417"
     inkscape:window-width="1920"
     inkscape:window-height="1051"
     inkscape:window-x="-9"
     inkscape:window-y="-9"
     inkscape:window-maximized="1"
     inkscape:current-layer="g1" /><g
     inkscape:groupmode="layer"
     inkscape:label="Image"
     id="g1"
     transform="translate(5.0378473,-3.0830463)"><rect
       style="display:inline;fill:url(#linearGradient420);fill-opacity:1;stroke:none"
       id="rect419"
       width="179.49986"
       height="26.405775"
       x="52.90049"
       y="236.36217" /><path
       style="display:inline;fill:#0e4c99;fill-opacity:1;stroke-width:18.6398"
       d="M 95.436941,192.20419 C 43.916528,201.69185 30.588982,179.64093 26.488261,168.12154 24.176967,162.21272 14.185973,144.02026 5.4811367,139.15526 -1.695148,135.29684 -11.965727,125.82782 5.2197287,125.56683 c 16.1419773,-0.26097 27.6800953,14.85594 31.5198083,21.02573 18.453447,30.99799 47.92295,22.2932 59.721993,16.9063"
       id="path1" /><path
       style="fill:#0e4c99;fill-opacity:1;stroke-width:13.9226"
       d="m 49.753422,85.589267 c 0,-16.651444 5.931016,-30.434834 15.704684,-41.155244 -1.545385,-3.82873 -6.905675,-19.51951 1.531435,-40.5844299 0,0 12.822723,-4.00972002 42.102009,15.7047099 12.46731,-3.45905 25.34908,-5.19691 38.28731,-5.16529 13.03157,0 26.04924,1.71248 38.28723,5.16529 29.29314,-19.90933992 42.11587,-15.7047099 42.11587,-15.7047099 8.4232,21.0649199 3.07693,36.7556999 1.54544,40.5844299 9.75977,10.72041 15.69083,24.3228 15.69083,41.155244"
       id="path421" /><path
       id="path407"
       style="display:inline;fill:#0e4c99;fill-opacity:1;stroke:none"
       d="m 69.474808,262.76792 c -7.153674,0 -12.952874,-5.7992 -12.952878,-12.95287 -10e-7,-7.15368 5.7992,-12.95288 12.952878,-12.95288 l 165.502092,-0.5 c 8.31,0 15,-6.69 15,-15 V 49.105261 c 0,-8.31 -6.69,-15 -15,-15 H 99.93473 76.05254 c -24.93,0 -45,20.07 -45,45 V 237.4318 c 0,24.93 20.07,45 45,45 h 23.88219 l 150.04217,-1e-5 -17.57654,-19.66386 z"
       sodipodi:nodetypes="csccssccsssscccc"
       sodipodi:insensitive="true"
       inkscape:label="book" /><g
       id="g419"
       clip-path="url(#clipPath419)"
       transform="translate(-6.027893,0.39578091)"><path
         id="rect412"
         style="display:inline;fill:#1976f1;fill-opacity:1;stroke:none;filter:url(#filter415)"
         inkscape:label="cover"
         d="m 82.080078,33.708984 c -3.834507,0 -7.554309,0.474863 -11.103516,1.369141 V 237.2793 c 1.40878,-0.52537 2.933488,-0.8125 4.525391,-0.8125 l 192.469547,-0.5 c 8.31,0 15,-6.69 15,-15 V 48.708984 c 0,-8.31 -6.69,-15 -15,-15 l -162.00861,0 z"
         sodipodi:insensitive="true"
         transform="matrix(1,0,0,1.1452158,0,-25.563634)"
         sodipodi:nodetypes="sccccssscs" /><path
         id="path414"
         style="fill:#0e4b9b;fill-opacity:1;stroke:none;filter:url(#filter414)"
         d="M 137.72059,13.040427 V 215.66026 l 48.13477,-45.61523 48.13672,45.61523 V 13.040427 Z"
         inkscape:label="shadow"
         sodipodi:nodetypes="cccccc" /></g><path
       id="rect413"
       style="display:inline;fill:#ffffff;fill-opacity:1;stroke:none"
       d="M 131.6928,34.104765 V 193.39578 l 48.13477,-45.61523 48.13672,45.61523 V 34.104765 Z"
       inkscape:label="bookmark" /></g></svg>
